<?xml version="1.0" encoding="utf-8"?>
<!-- Generator: Adobe Illustrator 19.2.1, SVG Export Plug-In . SVG Version: 6.00 Build 0)  -->
<!DOCTYPE svg PUBLIC "-//W3C//DTD SVG 1.1//EN" "http://www.w3.org/Graphics/SVG/1.1/DTD/svg11.dtd">
<svg version="1.1" id="レイヤー_1" xmlns="http://www.w3.org/2000/svg" xmlns:xlink="http://www.w3.org/1999/xlink" x="0px"
	 y="0px" viewBox="0 0 400.1 400.1" style="enable-background:new 0 0 400.1 400.1;" xml:space="preserve">
<style type="text/css">
	.st0{fill:#E4007F;}
</style>
<title>logo</title>
<path class="st0" d="M151.7,178.3c-3.1,3.7-7.5,5.4-12.6,5.4c-10.7,0-17.7-7.9-17.7-19.9c0-11.8,7-19.9,17.7-19.9
	c4.5-0.1,8.8,1.7,12,4.8c0.5,0.5,0.5,1.4,0,1.9c0,0,0,0,0,0c-0.4,0.5-1.2,0.6-1.7,0.2c-0.1-0.1-0.1-0.1-0.2-0.2
	c-2.7-2.6-6.3-4-10.1-4c-10.5,0-14.9,8.7-14.9,17.2c0,8.7,4.5,17.2,14.9,17.2c4,0.1,7.8-1.5,10.5-4.4c0.5-0.6,1.3-0.7,1.9-0.2
	C152,177,152.1,177.7,151.7,178.3z"/>
<path class="st0" d="M188.2,178.3c-3.1,3.7-7.5,5.4-12.6,5.4c-10.7,0-17.7-7.9-17.7-19.9c0-11.8,7-19.9,17.7-19.9
	c4.5-0.1,8.8,1.7,12,4.8c0.5,0.5,0.5,1.4,0,1.9c0,0,0,0,0,0c-0.4,0.5-1.2,0.6-1.7,0.2c-0.1-0.1-0.1-0.1-0.2-0.2
	c-2.7-2.6-6.3-4-10.1-4c-10.5,0-14.9,8.7-14.9,17.2c0,8.7,4.5,17.2,14.9,17.2c4,0.1,7.8-1.5,10.5-4.4c0.5-0.6,1.3-0.7,1.9-0.2
	C188.6,176.9,188.6,177.7,188.2,178.3z"/>
<path class="st0" d="M226.6,177.6c-4,3.9-9.4,6.1-14.9,6.2c-10.5,0-17.6-8.1-17.6-19.9c0-12,6.7-19.9,16.6-19.9
	c8.7,0,14.9,6.2,16.3,16.3c-0.1,0.4-0.2,0.8-0.4,1.2c-0.3,0.2-0.6,0.4-1,0.4h-22.6c-0.8,0-1.4-0.6-1.4-1.4c0,0,0,0,0,0
	c0-0.7,0.6-1.3,1.3-1.3c0,0,0,0,0.1,0H224c-1.3-6.2-5.4-12.4-13.3-12.4c-9.7,0-13.9,8.5-13.9,17.2c0,8.5,4.6,17.2,14.9,17.2
	c4.9-0.1,9.5-2,13-5.4c0.5-0.5,1.4-0.5,1.9,0S227.1,177,226.6,177.6L226.6,177.6z"/>
<path class="st0" d="M237.1,145.6v35.6c0,0.7-0.5,1.3-1.2,1.3c0,0-0.1,0-0.1,0c-0.7,0-1.3-0.5-1.4-1.2c0,0,0,0,0-0.1v-35.6
	c0-0.7,0.6-1.3,1.3-1.3c0,0,0,0,0.1,0c0.7,0,1.3,0.5,1.3,1.2C237.1,145.6,237.1,145.6,237.1,145.6z M263.9,157.5v23.9
	c0,0.7-0.5,1.4-1.3,1.4c0,0,0,0-0.1,0c-0.7-0.1-1.3-0.6-1.4-1.4v-23.9c0-4.9-1.7-8.1-5-9.9c-4.1-1.6-8.8-1-12.4,1.6
	c-0.5,0.5-1.3,0.5-1.8,0c0,0-0.1-0.1-0.1-0.1c-0.5-0.5-0.4-1.4,0.1-1.8c0,0,0.1-0.1,0.1-0.1c4.4-3.4,10.2-4.1,15.3-1.8
	C261.6,147.4,263.9,151.7,263.9,157.5L263.9,157.5z"/>
<path class="st0" d="M299.6,180.5c-4,2.9-9.7,3.6-13.3,1.7c-2.3-1.2-5-3.9-5-9.7v-24.9h-9.1c-0.7,0-1.3-0.5-1.3-1.2c0,0,0-0.1,0-0.1
	c0-0.7,0.5-1.4,1.3-1.4c0,0,0,0,0.1,0h9.1v-12.4c0-0.7,0.5-1.3,1.2-1.3c0,0,0.1,0,0.1,0c0.7,0,1.4,0.5,1.4,1.3c0,0,0,0,0,0.1v12.4
	h12.9c0.8,0,1.4,0.6,1.4,1.4v0c0,0.7-0.6,1.3-1.3,1.3c0,0,0,0-0.1,0h-13v24.9c0,3.5,1.2,6,3.5,7.2c2.9,1.6,7.4,0.9,10.6-1.4
	c0.5-0.5,1.3-0.4,1.8,0.1c0,0,0.1,0.1,0.1,0.1C300.4,179.2,300.2,180.1,299.6,180.5z"/>
<path class="st0" d="M149.2,219.1c-0.5-0.3-1.2-0.2-1.6,0.4c-0.1,0.1-0.1,0.3-0.1,0.4l-10.5,26.6L93.7,145.3
	c-0.2-0.5-0.8-0.9-1.4-0.8c-0.5,0-1,0.3-1.2,0.8L66,198.9c-0.2,0.8,0,1.6,0.8,1.7c0.5,0.4,1.3,0.2,1.7-0.3c0-0.1,0.1-0.1,0.1-0.2
	l8.5-18.2h23.8c0.7,0,1.3-0.5,1.4-1.2c0,0,0,0,0-0.1c0-0.8-0.6-1.4-1.4-1.4c0,0,0,0,0,0H78.2l14.1-30.2l43.4,101.9
	c0.3,0.5,0.8,0.8,1.4,0.8c0.5,0,0.9-0.3,1.2-0.8l11.8-30C150.2,220.2,149.9,219.4,149.2,219.1z"/>
<path class="st0" d="M190.1,194.9c-0.7-0.2-1.4,0.1-1.8,0.8l-20.1,50.9l-20.3-50.9c-0.4-0.6-1.1-0.9-1.8-0.8
	c-0.7,0.3-1.1,1.1-0.8,1.8c0,0,0,0.1,0.1,0.1l21.5,54c0.3,0.5,0.8,0.8,1.3,0.8c0.5-0.1,0.9-0.3,1.2-0.8l21.5-54.1
	C191,196,190.7,195.3,190.1,194.9z"/>
<path class="st0" d="M224.3,232.7c0,11.8-7.1,19.9-17.6,19.9s-17.7-8.1-17.7-19.9c0-12,7.2-20,17.7-20S224.3,220.7,224.3,232.7z
	 M221.5,232.7c0-8.8-4.6-17.3-14.9-17.3s-14.9,8.5-14.9,17.3c0,8.4,4.6,17.2,14.9,17.2S221.6,241.1,221.5,232.7L221.5,232.7z"/>
<path class="st0" d="M259.1,216.2c-0.3,0.6-1.1,0.9-1.7,0.6c-2.4-0.9-5-1.1-7.6-0.8c-6.4,1.2-11.8,7.9-12.9,9.4v24.9
	c0,0.8-0.6,1.4-1.4,1.4c-0.7,0-1.4-0.5-1.4-1.2c0,0,0-0.1,0-0.1v-35.8c0-0.7,0.6-1.3,1.3-1.3c0.7,0,1.3,0.6,1.4,1.3v6.6
	c2.5-2.9,7.1-7,12.4-7.8c3.1-0.7,6.4-0.3,9.3,1C259.2,214.8,259.5,215.5,259.1,216.2C259.2,216.2,259.2,216.2,259.1,216.2z"/>
<path class="st0" d="M269.6,196.7v53.8c0,0.8-0.6,1.4-1.4,1.4l0,0c-0.7-0.1-1.3-0.7-1.3-1.4v-53.8c0-0.7,0.6-1.3,1.3-1.4
	C268.9,195.3,269.6,195.9,269.6,196.7L269.6,196.7z M298.6,250.8c-0.1,0.3-0.2,0.6-0.4,0.8c-0.5,0.6-1.3,0.7-1.9,0.2l-22.3-20.5
	c-0.2-0.4-0.3-0.8-0.4-1.2c0-0.4,0.2-0.8,0.6-0.9l18.2-15.1c0.6-0.4,1.4-0.4,1.9,0.2c0.2,0.3,0.4,0.6,0.4,1c0,0.4-0.2,0.8-0.6,0.9
	c0,0-15.1,12.4-17,14.2c1.9,1.9,20.9,19.3,20.9,19.3C298.3,250,298.6,250.4,298.6,250.8L298.6,250.8z"/>
<path class="st0" d="M331.6,241.4c0,5-2.9,8.5-8.1,10.1c-7.4,2.1-17.7-0.8-20.5-5.8c-0.4-0.6-0.2-1.5,0.4-1.9
	c0.7-0.4,1.5-0.2,1.9,0.4c2.3,4,11.4,6.4,17.6,4.6c2.7-0.8,6-2.7,6-7.4c0-5.6-4.9-7.4-12.6-9.4c-6-1.6-12.4-3.3-12.4-9.3
	c0-3,1.6-5.7,4.1-7.2c5.4-3.5,14.9-2.5,20.3,0.2c0.7,0.3,1,1,0.7,1.7c-0.3,0.7-1,1-1.7,0.7c-0.1,0-0.1,0-0.2-0.1
	c-4.8-2.3-13.2-3.1-17.6-0.2c-1.8,0.9-3,2.8-2.9,4.9c0,3.6,3.9,5,10.5,6.7C323.8,231.3,331.6,233.2,331.6,241.4z"/>
<path class="st0" d="M303.1,207.8L303.1,207.8c-1.1,0,0.1-1.4,0.9-2l15.3-12.6c4.5-3.7,6.1-5.8,12-5.8l0,0c0.6,0,1.1,0.5,1.1,1.2
	c0,0.4-0.2,0.8-0.6,1l-27.4,18.1C304.1,207.7,303.6,207.8,303.1,207.8z"/>
<path class="st0" d="M200,2.3L397.8,200L200,397.8L2.3,200L200,2.3 M200,0L0,200l200,200l200-200L200,0L200,0L200,0z"/>
</svg>
