<svg id="レイヤー_1" data-name="レイヤー 1" xmlns="http://www.w3.org/2000/svg" viewBox="0 0 400.08 400.08"><defs><style>.cls-1{fill:#fff;}</style></defs><title>logo</title><path class="cls-1" d="M151.55,178.19c-3.1,3.72-7.51,5.42-12.55,5.42-10.69,0-17.66-7.9-17.66-19.9,0-11.77,7-19.9,17.66-19.9a16.79,16.79,0,0,1,12,4.8,1.36,1.36,0,0,1,0,1.94,1.24,1.24,0,0,1-1.94,0,14.28,14.28,0,0,0-10.07-4c-10.46,0-14.95,8.67-14.95,17.19,0,8.67,4.49,17.19,14.95,17.19a13.61,13.61,0,0,0,10.46-4.41,1.44,1.44,0,0,1,1.94-.23A1.54,1.54,0,0,1,151.55,178.19Z" transform="translate(0.14 0.14)"/><path class="cls-1" d="M188.1,178.19c-3.1,3.72-7.51,5.42-12.55,5.42-10.69,0-17.66-7.9-17.66-19.9,0-11.77,7-19.9,17.66-19.9a16.79,16.79,0,0,1,12,4.8,1.35,1.35,0,0,1,0,1.94,1.24,1.24,0,0,1-1.94,0,14.28,14.28,0,0,0-10.07-4c-10.46,0-14.95,8.67-14.95,17.19,0,8.67,4.49,17.19,14.95,17.19A13.61,13.61,0,0,0,186,176.49a1.44,1.44,0,0,1,1.94-.23A1.54,1.54,0,0,1,188.1,178.19Z" transform="translate(0.14 0.14)"/><path class="cls-1" d="M226.44,177.42a22.1,22.1,0,0,1-14.95,6.2c-10.46,0-17.58-8.13-17.58-19.9,0-12,6.74-19.9,16.65-19.9,8.67,0,14.87,6.2,16.26,16.26a3.42,3.42,0,0,1-.39,1.16,2,2,0,0,1-1,.39H202.81a1.39,1.39,0,0,1-1.4-1.39,1.33,1.33,0,0,1,1.4-1.32h21.07c-1.32-6.2-5.42-12.39-13.32-12.39-9.68,0-13.94,8.52-13.94,17.19,0,8.52,4.65,17.19,14.87,17.19a19.14,19.14,0,0,0,13-5.42A1.37,1.37,0,0,1,226.44,177.42Z" transform="translate(0.14 0.14)"/><path class="cls-1" d="M237,145.51v35.63a1.26,1.26,0,0,1-1.32,1.32,1.32,1.32,0,0,1-1.39-1.32V145.51a1.32,1.32,0,0,1,1.39-1.32A1.26,1.26,0,0,1,237,145.51Zm26.72,11.85v23.93a1.33,1.33,0,0,1-1.32,1.39,1.5,1.5,0,0,1-1.39-1.39V157.36c0-4.88-1.7-8.13-5-9.91A13.12,13.12,0,0,0,243.63,149a1.29,1.29,0,0,1-1.94-.15,1.31,1.31,0,0,1,.23-1.94,14.86,14.86,0,0,1,15.26-1.78C261.44,147.29,263.76,151.55,263.76,157.36Z" transform="translate(0.14 0.14)"/><path class="cls-1" d="M299.46,180.36c-4,2.87-9.68,3.64-13.32,1.7-2.32-1.16-5-3.87-5-9.68V147.44H272a1.26,1.26,0,0,1-1.32-1.32,1.33,1.33,0,0,1,1.32-1.39h9.14V132.34a1.26,1.26,0,0,1,1.32-1.32,1.33,1.33,0,0,1,1.39,1.32v12.39h12.93a1.39,1.39,0,0,1,1.39,1.39,1.32,1.32,0,0,1-1.39,1.32H283.82v24.94c0,3.49,1.16,6,3.49,7.2,2.87,1.55,7.36.93,10.61-1.39a1.29,1.29,0,0,1,1.94.23A1.42,1.42,0,0,1,299.46,180.36Z" transform="translate(0.14 0.14)"/><path class="cls-1" d="M149.08,219a1.13,1.13,0,0,0-1.7.77l-10.46,26.64L93.55,145.17a1.3,1.3,0,0,0-1.39-.78,1.18,1.18,0,0,0-1.16.78l-25.17,53.6c-0.16.78,0,1.55,0.77,1.7a1.2,1.2,0,0,0,1.78-.54l8.52-18.2h23.78a1.32,1.32,0,0,0,1.39-1.32,1.39,1.39,0,0,0-1.39-1.4H78.06l14.1-30.2,43.37,101.88a1.7,1.7,0,0,0,1.39.77,1.41,1.41,0,0,0,1.16-.77l11.77-30A1.32,1.32,0,0,0,149.08,219Z" transform="translate(0.14 0.14)"/><path class="cls-1" d="M190,194.77a1.62,1.62,0,0,0-1.78.77l-20.14,50.88-20.29-50.88a1.85,1.85,0,0,0-1.78-.77,1.41,1.41,0,0,0-.77,1.94l21.53,54a1.56,1.56,0,0,0,1.32.77,1.53,1.53,0,0,0,1.16-.77l21.53-54.14A1.85,1.85,0,0,0,190,194.77Z" transform="translate(0.14 0.14)"/><path class="cls-1" d="M224.12,232.56c0,11.77-7.13,19.9-17.58,19.9s-17.66-8.13-17.66-19.9c0-12,7.2-20,17.66-20S224.12,220.56,224.12,232.56Zm-2.71,0c0-8.75-4.65-17.27-14.87-17.27s-14.95,8.52-14.95,17.27c0,8.44,4.65,17.19,14.95,17.19S221.41,241,221.41,232.56Z" transform="translate(0.14 0.14)"/><path class="cls-1" d="M259,216.07a1.28,1.28,0,0,1-1.7.62,16.34,16.34,0,0,0-7.59-.77c-6.35,1.16-11.77,7.9-12.93,9.45V250.3a1.39,1.39,0,0,1-1.39,1.39A1.32,1.32,0,0,1,234,250.3V214.52a1.41,1.41,0,0,1,1.32-1.32,1.49,1.49,0,0,1,1.39,1.32v6.58c2.48-2.87,7.13-7,12.39-7.75a15.11,15.11,0,0,1,9.29,1A1.25,1.25,0,0,1,259,216.07Z" transform="translate(0.14 0.14)"/><path class="cls-1" d="M269.42,196.55V250.3a1.39,1.39,0,0,1-1.39,1.39,1.49,1.49,0,0,1-1.32-1.39V196.55a1.49,1.49,0,0,1,1.32-1.39A1.39,1.39,0,0,1,269.42,196.55Zm29,54.14a1.47,1.47,0,0,1-.39.77,1.46,1.46,0,0,1-1.94.23l-22.31-20.52a3.43,3.43,0,0,1-.39-1.16,1,1,0,0,1,.62-0.93l18.2-15.1a1.51,1.51,0,0,1,1.94.16,2,2,0,0,1,.39,1,1,1,0,0,1-.62.93s-15.1,12.39-17,14.17c1.94,1.94,20.91,19.28,20.91,19.28A1.74,1.74,0,0,1,298.46,250.69Z" transform="translate(0.14 0.14)"/><path class="cls-1" d="M331.45,241.24c0,5-2.94,8.52-8.13,10.07-7.36,2.09-17.66-.77-20.52-5.81a1.42,1.42,0,0,1,.39-1.94,1.47,1.47,0,0,1,1.94.39c2.32,4,11.39,6.35,17.58,4.65,2.71-.78,6-2.71,6-7.36,0-5.58-4.88-7.36-12.62-9.45-6-1.55-12.39-3.33-12.39-9.29a8.36,8.36,0,0,1,4.1-7.2c5.42-3.49,14.87-2.48,20.29.23a1.3,1.3,0,1,1-1.16,2.32c-4.8-2.32-13.17-3.1-17.58-.23a5.37,5.37,0,0,0-2.94,4.88c0,3.64,3.87,5,10.46,6.74C323.7,231.17,331.45,233.11,331.45,241.24Z" transform="translate(0.14 0.14)"/><path class="cls-1" d="M303,207.64h0c-1.08,0,.07-1.35.9-2L319.24,193c4.53-3.72,6.14-5.76,12-5.76h0a1.15,1.15,0,0,1,.58,2.14l-27.4,18.07A6.21,6.21,0,0,1,303,207.64Z" transform="translate(0.14 0.14)"/><path class="cls-1" d="M199.9,2.19L397.61,199.9,199.9,397.61,2.19,199.9,199.9,2.19m0-2.33-200,200,200,200,200-200-200-200h0Z" transform="translate(0.14 0.14)"/></svg>